<?xml version="1.0" encoding="iso-8859-1"?>
<!-- Generator: Adobe Illustrator 27.5.0, SVG Export Plug-In . SVG Version: 6.00 Build 0)  -->
<svg version="1.1" id="Camada_1" xmlns="http://www.w3.org/2000/svg" xmlns:xlink="http://www.w3.org/1999/xlink" x="0px" y="0px"
	 viewBox="0 0 200 122.68" style="enable-background:new 0 0 200 122.68;" xml:space="preserve">
<g>
	
		<rect x="94.33" y="111.34" transform="matrix(-1 -1.224647e-16 1.224647e-16 -1 200 234.0206)" style="fill:#5E2D80;" width="11.34" height="11.34"/>
	
		<rect x="62.887" y="111.34" transform="matrix(-1 -1.224647e-16 1.224647e-16 -1 137.1134 234.0206)" style="fill:#5E2D80;" width="11.34" height="11.34"/>
	
		<rect x="31.443" y="111.34" transform="matrix(-1 -1.224647e-16 1.224647e-16 -1 74.2268 234.0206)" style="fill:#5E2D80;" width="11.34" height="11.34"/>
	
		<rect x="94.33" y="55.67" transform="matrix(-1 -1.224647e-16 1.224647e-16 -1 200 122.6804)" style="fill:#5E2D80;" width="11.34" height="11.34"/>
	
		<rect x="62.887" y="55.67" transform="matrix(-1 -1.224647e-16 1.224647e-16 -1 137.1134 122.6804)" style="fill:#5E2D80;" width="11.34" height="11.34"/>
	
		<rect x="31.443" y="55.67" transform="matrix(-1 -1.224647e-16 1.224647e-16 -1 74.2268 122.6804)" style="fill:#5E2D80;" width="11.34" height="11.34"/>
	
		<rect y="55.67" transform="matrix(-1 -1.224647e-16 1.224647e-16 -1 11.3402 122.6804)" style="fill:#5E2D80;" width="11.34" height="11.34"/>
	
		<rect x="62.887" transform="matrix(-1 -1.224647e-16 1.224647e-16 -1 137.1134 11.3402)" style="fill:#5E2D80;" width="11.34" height="11.34"/>
	
		<rect x="31.443" transform="matrix(-1 -1.224647e-16 1.224647e-16 -1 74.2268 11.3402)" style="fill:#5E2D80;" width="11.34" height="11.34"/>
	<rect transform="matrix(-1 -1.224647e-16 1.224647e-16 -1 11.3402 11.3402)" style="fill:#5E2D80;" width="11.34" height="11.34"/>
	
		<rect x="157.216" y="83.505" transform="matrix(-1 -1.224647e-16 1.224647e-16 -1 325.7732 178.3505)" style="fill:#5E2D80;" width="11.34" height="11.34"/>
	
		<rect x="125.773" y="83.505" transform="matrix(-1 -1.224647e-16 1.224647e-16 -1 262.8866 178.3505)" style="fill:#5E2D80;" width="11.34" height="11.34"/>
	
		<rect x="94.33" y="83.505" transform="matrix(-1 -1.224647e-16 1.224647e-16 -1 200 178.3505)" style="fill:#5E2D80;" width="11.34" height="11.34"/>
	
		<rect x="62.887" y="83.505" transform="matrix(-1 -1.224647e-16 1.224647e-16 -1 137.1134 178.3505)" style="fill:#5E2D80;" width="11.34" height="11.34"/>
	
		<rect x="31.443" y="83.505" transform="matrix(-1 -1.224647e-16 1.224647e-16 -1 74.2268 178.3505)" style="fill:#5E2D80;" width="11.34" height="11.34"/>
	
		<rect x="157.216" y="27.835" transform="matrix(-1 -1.224647e-16 1.224647e-16 -1 325.7732 67.0103)" style="fill:#5E2D80;" width="11.34" height="11.34"/>
	
		<rect x="125.773" y="27.835" transform="matrix(-1 -1.224647e-16 1.224647e-16 -1 262.8866 67.0103)" style="fill:#5E2D80;" width="11.34" height="11.34"/>
	
		<rect x="94.33" y="27.835" transform="matrix(-1 -1.224647e-16 1.224647e-16 -1 200 67.0103)" style="fill:#5E2D80;" width="11.34" height="11.34"/>
	
		<rect x="62.887" y="27.835" transform="matrix(-1 -1.224647e-16 1.224647e-16 -1 137.1134 67.0103)" style="fill:#5E2D80;" width="11.34" height="11.34"/>
	
		<rect x="188.66" y="27.835" transform="matrix(-1 -1.224647e-16 1.224647e-16 -1 388.6598 67.0103)" style="fill:#5E2D80;" width="11.34" height="11.34"/>
	
		<rect x="31.443" y="27.835" transform="matrix(-1 -1.224647e-16 1.224647e-16 -1 74.2268 67.0103)" style="fill:#5E2D80;" width="11.34" height="11.34"/>
</g>
</svg>
