<?xml version="1.0" encoding="iso-8859-1"?>
<!-- Generator: Adobe Illustrator 27.5.0, SVG Export Plug-In . SVG Version: 6.00 Build 0)  -->
<svg version="1.1" id="Camada_1" xmlns="http://www.w3.org/2000/svg" xmlns:xlink="http://www.w3.org/1999/xlink" x="0px" y="0px"
	 viewBox="0 0 800 382.358" style="enable-background:new 0 0 800 382.358;" xml:space="preserve">
<g>
	<rect x="467.637" y="180.747" style="fill-rule:evenodd;clip-rule:evenodd;fill:#FFFFFF;" width="2.031" height="206.48"/>
	<g>
		<path style="fill-rule:evenodd;clip-rule:evenodd;fill:#FFFFFF;" d="M763.571,294.701v3.57c-2.484,0.867-4.856,1.502-7.138,1.886
			c-2.274,0.399-4.65,0.593-7.13,0.593c-8.157,0-14.938-1.695-20.369-5.09c-5.403-3.387-8.117-7.61-8.117-12.661
			c0-5.043,2.713-9.265,8.117-12.657c5.431-3.39,12.213-5.09,20.369-5.09c2.531,0,4.937,0.19,7.234,0.582
			c2.277,0.388,4.633,1.003,7.034,1.85v3.621c-2.38-1.145-4.721-1.964-7.027-2.467c-2.297-0.495-4.916-0.754-7.852-0.754
			c-5.875,0-10.926,1.232-15.132,3.672c-4.2,2.449-6.726,5.642-7.539,9.591v2.971c0.65,4.029,3.094,7.317,7.333,9.828
			c4.238,2.512,9.345,3.772,15.338,3.772c2.935,0,5.554-0.25,7.852-0.744C758.85,296.667,761.19,295.846,763.571,294.701z"/>
		<path style="fill-rule:evenodd;clip-rule:evenodd;fill:#FFFFFF;" d="M557.602,301.108h-6.223
			c0.337-4.974,0.472-10.188,0.472-15.682c0-5.4-0.135-10.146-0.472-14.178h6.223c-0.324,4.175-0.459,8.922-0.459,14.178
			C557.142,290.963,557.277,296.172,557.602,301.108z"/>
		<path style="fill-rule:evenodd;clip-rule:evenodd;fill:#FFFFFF;" d="M672.844,300.86h-5.209
			c0.227-6.333,0.277-11.983,0.277-16.962H651.56c0,4.021,0.063,9.678,0.285,16.962h-5.206c0.226-6.666,0.401-12.878,0.401-18.702
			c0-6.104-0.175-11.701-0.401-16.91h5.206c-0.222,5.209-0.333,10.3-0.333,15.228h16.46c0-3.973-0.11-9.016-0.337-15.228h5.209
			c-0.285,5.095-0.395,10.695-0.395,16.91C672.448,288.929,672.558,295.203,672.844,300.86z"/>
		<path style="fill-rule:evenodd;clip-rule:evenodd;fill:#FFFFFF;" d="M714.732,300.872h-6.599
			c0.519-6.374,0.816-13.266,0.816-20.757c0-3.705-0.737-6.299-2.302-7.634c-1.485-1.408-3.621-2.076-6.445-2.076
			c-3.407,0-6.599,1.263-9.483,3.787c0,8.228,0.066,17.117,0.142,26.679h-6.603c0.447-8.223,0.673-14.155,0.673-17.786
			c0-5.641-0.522-11.123-1.632-16.464l6.374-0.884l0.744,4.37h0.217c3.641-3.186,7.413-4.818,11.494-4.818
			c4.001,0,7.117,0.891,9.34,2.666c2.147,1.787,3.264,4.896,3.264,9.487c0,0.448,0,1.338-0.079,2.671
			c-0.071,1.338-0.071,2.305-0.071,2.741C714.581,286.861,714.652,292.867,714.732,300.872z"/>
		<path style="fill-rule:evenodd;clip-rule:evenodd;fill:#FFFFFF;" d="M547.195,304.086c-8.038-0.617-22.39-11.899-22.996-21.857
			c-0.044-0.14-0.064-0.231-0.099-0.373l-0.334-0.119l0.021,1.407c0,4.286,0.096,10.268,0.285,17.935h-5.17
			c0.277-5.676,0.417-11.931,0.417-18.791c0-6.438-0.139-12.098-0.417-16.975h5.17c-0.19,4.877-0.285,9.809-0.285,14.844
			l-0.021,1.438v0.142l0.334,0.119c-0.016-0.079,0.011-0.163,0.079-0.234l0.198-0.187c0.031-0.036,0.071-0.059,0.118-0.091
			c1.363-1.161,4.461-4.713,7.468-8.204c4.021-4.67,6.03-7.273,6.03-7.828h5.712c0,0.555-1.949,2.828-5.862,6.809
			c-3.902,3.974-8.038,8.121-9.71,9.614C529.907,287.287,534.027,299.536,547.195,304.086z"/>
		<path style="fill-rule:evenodd;clip-rule:evenodd;fill:#FFFFFF;" d="M570.894,300.821h-5.336v-35.505h0.527
			c6.69,0,12.192,1.216,16.554,3.649c4.345,2.424,6.52,5.473,6.52,9.147c0,2.337-0.876,4.437-2.637,6.29
			c-1.736,1.865-4.612,3.724-8.581,5.606c0.579,6.857,8.355,13.4,16.883,14.435c-10.358-0.285-22.306-8.517-23.443-16.372
			c-0.027-0.168,0.563-0.396,1.688-0.689c1.129-0.29,2.175-0.661,3.118-1.109c2.451-1.121,4.31-2.37,5.573-3.736
			c1.26-1.374,1.878-2.828,1.878-4.377c0-2.277-1.197-4.273-3.569-5.989c-2.388-1.712-5.447-2.741-9.174-3.074V300.821z"/>
		<path style="fill-rule:evenodd;clip-rule:evenodd;fill:#FFFFFF;" d="M636.31,294.736v3.549c-2.116,0.848-4.405,1.486-6.885,1.91
			c-2.476,0.42-5.182,0.626-8.079,0.626c-3.763,0-7.336-0.444-10.743-1.323c-3.426-0.884-6.448-2.159-9.083-3.85
			c-2.689-1.672-4.726-3.581-6.132-5.744c-1.382-2.151-2.076-4.461-2.076-6.933c0-5.078,2.717-9.324,8.164-12.736
			c5.458-3.418,12.28-5.118,20.496-5.118c2.536,0,4.947,0.19,7.249,0.582c2.305,0.392,4.666,1.01,7.087,1.862v3.64
			c-2.401-1.148-4.75-1.976-7.063-2.48c-2.305-0.499-4.944-0.76-7.9-0.76c-6.428,0-11.844,1.449-16.249,4.342
			c-4.432,2.884-6.639,6.444-6.639,10.668c0,4.227,2.206,7.776,6.639,10.668c4.405,2.888,9.82,4.33,16.249,4.33
			c2.956,0,5.646-0.269,8.113-0.797C631.921,296.642,634.194,295.835,636.31,294.736z"/>
		<path style="fill-rule:evenodd;clip-rule:evenodd;fill:#FFFFFF;" d="M776.016,300.772h-5.331v-35.449h0.526
			c6.687,0,12.19,1.204,16.527,3.632c4.349,2.424,6.521,5.47,6.521,9.134c0,2.337-0.875,4.429-2.639,6.291
			c-1.735,1.85-4.607,3.715-8.565,5.588c0.574,6.854,8.339,13.386,16.86,14.416c-10.351-0.29-22.279-8.505-23.416-16.345
			c-0.035-0.174,0.575-0.403,1.692-0.692c1.126-0.285,2.176-0.659,3.114-1.11c2.448-1.117,4.294-2.365,5.557-3.727
			c1.264-1.367,1.885-2.818,1.885-4.374c0-2.274-1.196-4.262-3.569-5.974c-2.396-1.711-5.443-2.738-9.163-3.077V300.772z"/>
		<path style="fill-rule:evenodd;clip-rule:evenodd;fill:#FFFFFF;" d="M558.07,266.748c0,0.492-0.306,0.936-0.97,1.327
			c-0.674,0.389-1.593,0.571-2.765,0.571c-0.978,0-1.758-0.15-2.267-0.491c-0.561-0.341-0.823-0.733-0.823-1.201
			c0-0.476,0.317-0.915,0.982-1.279c0.662-0.364,1.593-0.551,2.765-0.551c1.03,0,1.735,0.154,2.313,0.472
			C557.812,265.905,558.07,266.301,558.07,266.748z"/>
		<path style="fill-rule:evenodd;clip-rule:evenodd;fill:#FFFFFF;" d="M713.072,220.777v3.605c-2.495,0.867-4.892,1.502-7.185,1.897
			c-2.286,0.394-4.687,0.595-7.179,0.595c-8.223,0-15.065-1.711-20.527-5.126c-5.446-3.415-8.176-7.674-8.176-12.756
			c0-5.078,2.73-9.338,8.176-12.756c5.463-3.414,12.304-5.123,20.527-5.123c2.543,0,4.96,0.183,7.273,0.579
			c2.298,0.393,4.672,1.016,7.091,1.863v3.649c-2.392-1.154-4.753-1.985-7.078-2.484c-2.313-0.504-4.948-0.757-7.903-0.757
			c-5.923,0-11.009,1.24-15.251,3.703c-4.231,2.468-6.773,5.681-7.597,9.659v2.999c0.649,4.06,3.109,7.359,7.387,9.895
			c4.275,2.535,9.42,3.799,15.462,3.799c2.955,0,5.59-0.25,7.903-0.749C708.319,222.757,710.679,221.93,713.072,220.777z"/>
		<path style="fill-rule:evenodd;clip-rule:evenodd;fill:#FFFFFF;" d="M579.56,217.586v-19.34h5.113v19.851
			c0,1.949,0.883,3.478,2.663,4.568c1.754,1.105,4.178,1.652,7.237,1.652c3.201,0,5.692-0.527,7.479-1.581
			c1.771-1.053,2.671-2.546,2.671-4.475v-20.014h5.121v20.014c0,2.634-1.378,4.729-4.123,6.282
			c-2.762,1.553-6.398,2.334-10.901,2.334c-2.464,0-4.739-0.258-6.81-0.773c-2.079-0.503-3.877-1.257-5.403-2.23
			c-1.097-0.689-1.873-1.441-2.349-2.255c-0.471-0.807-0.696-1.972-0.696-3.482V217.586z"/>
		<path style="fill-rule:evenodd;clip-rule:evenodd;fill:#FFFFFF;" d="M585.555,193.53c0-0.48,0.325-0.877,0.991-1.197
			c0.65-0.329,1.43-0.487,2.372-0.487c0.939,0,1.724,0.158,2.369,0.487c0.641,0.32,0.959,0.717,0.959,1.197
			c0,0.463-0.318,0.863-0.982,1.207c-0.646,0.341-1.43,0.511-2.346,0.511c-0.91,0-1.691-0.171-2.357-0.511
			C585.892,194.393,585.555,193.993,585.555,193.53z"/>
		<path style="fill-rule:evenodd;clip-rule:evenodd;fill:#FFFFFF;" d="M597.188,193.53c0-0.48,0.33-0.877,0.97-1.197
			c0.635-0.329,1.431-0.487,2.388-0.487c0.92,0,1.7,0.158,2.354,0.487c0.666,0.32,0.99,0.717,0.99,1.197
			c0,0.463-0.337,0.863-1.011,1.207c-0.657,0.341-1.441,0.511-2.333,0.511c-0.934,0-1.715-0.171-2.372-0.511
			C597.518,194.393,597.188,193.993,597.188,193.53z"/>
		<polygon style="fill-rule:evenodd;clip-rule:evenodd;fill:#FFFFFF;" points="618.5,226.31 618.5,191.669 623.697,191.669 
			623.697,223.32 639.197,223.32 639.197,226.31 		"/>
		<polygon style="fill-rule:evenodd;clip-rule:evenodd;fill:#FFFFFF;" points="644.039,226.31 644.039,191.669 649.237,191.669 
			649.237,223.32 664.737,223.32 664.737,226.31 		"/>
		<path style="fill-rule:evenodd;clip-rule:evenodd;fill:#FFFFFF;" d="M725.22,226.31h-5.209v-34.642h0.51
			c6.524,0,11.904,1.181,16.154,3.55c4.255,2.373,6.366,5.347,6.366,8.932c0,2.285-0.848,4.325-2.567,6.145
			c-1.703,1.814-4.512,3.628-8.39,5.467c0.567,6.69,8.157,13.08,16.483,14.094c-10.097-0.285-21.771-8.319-22.888-15.985
			c-0.016-0.163,0.566-0.388,1.657-0.673c1.105-0.285,2.122-0.641,3.045-1.085c2.398-1.093,4.211-2.305,5.436-3.645
			c1.235-1.335,1.842-2.76,1.842-4.262c0-2.233-1.169-4.175-3.49-5.851c-2.337-1.674-5.313-2.673-8.949-2.994V226.31z"/>
		<path style="fill-rule:evenodd;clip-rule:evenodd;fill:#FFFFFF;" d="M537.532,202.993c-0.123,0.112-0.242,0.239-0.36,0.353
			C537.29,203.232,537.41,203.105,537.532,202.993z"/>
		<path style="fill-rule:evenodd;clip-rule:evenodd;fill:#FFFFFF;" d="M537.173,203.346c0.119-0.115,0.234-0.242,0.36-0.353
			C537.407,203.105,537.292,203.232,537.173,203.346z"/>
		<path style="fill-rule:evenodd;clip-rule:evenodd;fill:#FFFFFF;" d="M538.167,202.375c-0.135,0.134-0.277,0.265-0.413,0.396
			C537.89,202.64,538.032,202.51,538.167,202.375z"/>
		<path style="fill-rule:evenodd;clip-rule:evenodd;fill:#FFFFFF;" d="M537.751,202.773c0.138-0.13,0.278-0.258,0.412-0.392
			C538.03,202.514,537.89,202.642,537.751,202.773z"/>
		<path style="fill-rule:evenodd;clip-rule:evenodd;fill:#FFFFFF;" d="M538.774,201.829c-0.158,0.139-0.321,0.282-0.472,0.425
			C538.453,202.111,538.616,201.968,538.774,201.829z"/>
		<path style="fill-rule:evenodd;clip-rule:evenodd;fill:#FFFFFF;" d="M538.302,202.253c0.151-0.143,0.312-0.289,0.472-0.424
			C538.614,201.964,538.453,202.11,538.302,202.253z"/>
		<path style="fill-rule:evenodd;clip-rule:evenodd;fill:#FFFFFF;" d="M539.366,201.291c-0.139,0.127-0.285,0.258-0.424,0.381
			C539.081,201.549,539.227,201.418,539.366,201.291z"/>
		<path style="fill-rule:evenodd;clip-rule:evenodd;fill:#FFFFFF;" d="M538.94,201.674l0.419-0.379L538.94,201.674z"/>
		<path style="fill-rule:evenodd;clip-rule:evenodd;fill:#FFFFFF;" d="M539.969,200.781c-0.158,0.134-0.309,0.258-0.454,0.388
			C539.66,201.039,539.811,200.915,539.969,200.781z"/>
		<path style="fill-rule:evenodd;clip-rule:evenodd;fill:#FFFFFF;" d="M539.514,201.168c0.147-0.127,0.297-0.254,0.455-0.384
			C539.812,200.914,539.661,201.041,539.514,201.168z"/>
		<path style="fill-rule:evenodd;clip-rule:evenodd;fill:#FFFFFF;" d="M556.681,195.123v31.187h5.094v-31.888
			C559.997,194.576,558.314,194.83,556.681,195.123z"/>
		<path style="fill-rule:evenodd;clip-rule:evenodd;fill:#FFFFFF;" d="M537.056,203.4c1.344-1.328,2.782-2.484,4.231-3.597
			c-0.42,0.321-0.868,0.594-1.28,0.939c-1.484-2.318-3.806-4.234-6.988-5.757c-3.755-1.807-8.461-2.912-14.093-3.315v34.642h5.058
			v-30.554c4.73,0.752,8.381,2.385,10.937,4.88C535.777,201.491,536.482,202.41,537.056,203.4z"/>
		<path style="fill-rule:evenodd;clip-rule:evenodd;fill:#FFFFFF;" d="M707.811,209.439c-12.562-2.468-31.778,2.389-42.914,18.282
			c10.042-11.307,21.803-16.08,41.689-14.741C706.995,211.803,707.403,210.619,707.811,209.439z"/>
		<path style="fill-rule:evenodd;clip-rule:evenodd;fill:#FFFFFF;" d="M541.35,366.574c0,6.489-4.52,9.88-13.548,9.741
			c-7.878-0.122-11.554-5.272-14.212-7.784c3.783,3.412,10.647,4.045,14.735,4.045c5.966,0,8.945-1.687,8.945-5.054
			c0-1.7-0.773-3.153-2.313-4.369c-1.038-0.805-3.062-1.883-6.105-3.246c-3.197-1.413-5.427-2.72-6.711-3.917
			c-1.779-1.655-2.654-3.715-2.654-6.199c0-2.61,0.899-4.725,2.705-6.361c2.025-1.823,4.877-2.722,8.553-2.722
			c4.182,0,7.043,0.262,8.58,0.812l-0.63,4.176c-2.658-0.832-5.499-1.257-8.501-1.257c-4.507,0-6.762,1.506-6.762,4.536
			c0,1.45,0.654,2.666,1.945,3.652c0.844,0.611,2.709,1.545,5.577,2.792c3.28,1.427,5.657,2.762,7.106,4.045
			C540.257,361.4,541.35,363.762,541.35,366.574z"/>
		<path style="fill-rule:evenodd;clip-rule:evenodd;fill:#FFFFFF;" d="M572.151,358.825c0-3.604-0.84-6.797-2.459-9.63
			c-1.692-2.764-4.029-4.171-7.139-4.171c-2.986,0-5.387,1.34-7.007,3.961c-1.621,2.691-2.46,5.741-2.46,9.274
			c0,3.617,0.839,6.801,2.528,9.558c1.623,2.841,4.024,4.184,7.071,4.184c3.047,0,5.388-1.276,7.008-3.969
			C571.311,365.346,572.151,362.305,572.151,358.825L572.151,358.825z M577.598,357.617c0,5.888-1.553,10.486-4.607,13.822
			c-3.11,3.327-6.809,4.956-10.966,4.956c-3.952,0-7.32-1.486-10.101-4.393c-2.856-2.908-4.29-7.083-4.29-12.399
			c0-5.942,1.556-10.549,4.667-13.94c3.117-3.331,6.817-4.955,11.036-4.955c3.882,0,7.261,1.407,10.05,4.389
			C576.239,348.063,577.598,352.247,577.598,357.617z"/>
		<path style="fill-rule:evenodd;clip-rule:evenodd;fill:#FFFFFF;" d="M691.73,377.677c-7.087-3.866-12.795-7.162-12.914-8.112
			l-1.957,2.69c-2.879,2.634-6.81,3.936-11.777,3.936c-2.697,0-5.011-0.788-6.956-2.38c-1.948-1.561-2.919-3.819-2.919-6.762
			c0-3.592,1.529-6.5,4.58-8.699c3.046-2.183,8.703-3.335,16.974-3.454c0.075-0.563,0.099-1.212,0.099-1.925
			c0-2.896-0.765-4.817-2.298-5.776c-1.533-0.962-3.866-1.446-6.984-1.446c-3.675,0-7.288,0.464-10.858,1.371l0.602-4.844
			c3.521-1.008,7.566-1.51,12.122-1.51c4.176,0,7.404,0.863,9.67,2.574c2.272,1.728,3.405,4.671,3.405,8.81
			c0,1.107-0.309,3.111-0.158,6.002C683.003,370.167,686.81,373.743,691.73,377.677L691.73,377.677z M677.834,367.995
			c-0.926-2.935-1.548-5.776-1.073-9.091c-4.401,0-7.764,0.324-10.053,0.987c-3.839,1.172-5.772,3.41-5.772,6.706
			c0,3.189,2.249,4.789,6.749,4.789C671.559,371.387,675.536,369.917,677.834,367.995z"/>
		<path style="fill-rule:evenodd;clip-rule:evenodd;fill:#FFFFFF;" d="M582.313,364.795v-23.815h5.131v24.441
			c0,2.397,0.891,4.283,2.67,5.625c1.758,1.358,4.175,2.032,7.241,2.032c3.201,0,5.693-0.647,7.483-1.946
			c1.779-1.299,2.675-3.137,2.675-5.51v-24.643h5.134v24.643c0,3.244-1.383,5.816-4.132,7.737
			c-2.757,1.913-6.401,2.868-10.913,2.868c-2.468,0-4.742-0.309-6.83-0.947c-2.075-0.625-3.87-1.545-5.404-2.741
			c-1.084-0.861-1.877-1.779-2.341-2.782c-0.475-1.006-0.714-2.432-0.714-4.294V364.795z"/>
		<path style="fill-rule:evenodd;clip-rule:evenodd;fill:#FFFFFF;" d="M639.861,346.694c0,0.907-3.095,5.138-9.278,12.665
			c-5.669,6.908-9.198,11.017-10.572,12.351l-0.005,0.059c2.733,0.179,5.265,0.21,7.791,0.234l0.048-0.213
			c0.254-0.983,2.927-5.222,8.775-12.601c4.678-5.906,8.108-10.058,10.276-12.41l0.384-6.145h-27.119l-0.226,6.145
			c4.885-0.349,11.52-0.503,19.883-0.503L639.861,346.694z"/>
	</g>
	<rect x="220.148" y="189.545" style="fill-rule:evenodd;clip-rule:evenodd;fill:#FFFFFF;" width="19.065" height="131.96"/>
	<path style="fill-rule:evenodd;clip-rule:evenodd;fill:#FFFFFF;" d="M255.806,250.16c6.144-5.519,21.388-20.829,35.803-35.501
		c14.427-14.688,21.621-23.079,21.621-25.114h-21.074c0,2.036-7.407,11.65-22.238,28.882
		c-11.089,12.887-22.528,25.997-27.564,30.249c-0.15,0.122-0.954,0.835-1.029,0.977c-0.246,0.485-0.226,1.803-0.047,2.318
		c2.234,36.718,55.156,78.339,84.828,80.601C277.514,315.791,262.315,270.617,255.806,250.16z"/>
	<path style="fill-rule:evenodd;clip-rule:evenodd;fill:#FFFFFF;" d="M414.99,285.565c0,23.982-16.71,36.5-50.072,35.993
		c-29.135-0.444-42.707-19.49-52.548-28.756c13.985,12.609,39.36,14.947,54.469,14.947c22.057,0,33.074-6.251,33.074-18.697
		c0-6.272-2.852-11.655-8.565-16.131c-3.824-2.994-11.317-6.972-22.544-11.991c-11.816-5.245-20.087-10.062-24.805-14.475
		c-6.568-6.104-9.82-13.748-9.82-22.94c0-9.625,3.319-17.426,10.022-23.471c7.444-6.738,17.992-10.094,31.604-10.094
		c15.445,0,26.001,0.99,31.714,3.015l-2.357,15.441c-9.835-3.078-20.313-4.647-31.41-4.647c-16.669,0-25.003,5.578-25.003,16.737
		c0,5.38,2.424,9.891,7.205,13.512c3.125,2.262,9.998,5.712,20.618,10.324c12.122,5.252,20.881,10.227,26.26,14.974
		C410.933,266.444,414.99,275.178,414.99,285.565z"/>
	<path style="fill-rule:evenodd;clip-rule:evenodd;fill:#E8B420;" d="M214.847,186.091c-47.045-8.89-118.983,8.588-160.684,65.849
		c37.597-40.734,81.631-57.926,156.072-53.102C211.769,194.591,213.302,190.341,214.847,186.091z"/>
	<path style="fill-rule:evenodd;clip-rule:evenodd;fill:#FFFFFF;" d="M144.742,201.535v120.124h19.521V199.016
		C157.469,199.582,150.966,200.425,144.742,201.535z"/>
	<path style="fill-rule:evenodd;clip-rule:evenodd;fill:#FFFFFF;" d="M69.589,233.928c3.617-3.648,7.333-7.135,11.203-10.355
		c-5.697-8.861-14.595-16.209-26.771-22.021C39.606,194.639,21.57,190.393,0,188.836v132.819h19.379V204.527
		c18.131,2.879,32.127,9.115,41.931,18.721C64.637,226.508,67.39,230.07,69.589,233.928z"/>
	<path style="fill:#FFFFFF;" d="M61.7,375.972v-29.298h10.093c2.279,0,4.017,0.138,5.216,0.418c1.68,0.388,3.111,1.086,4.297,2.099
		c1.545,1.304,2.702,2.974,3.467,5.007c0.767,2.03,1.149,4.354,1.149,6.965c0,2.224-0.259,4.196-0.78,5.915
		c-0.519,1.717-1.185,3.141-1.998,4.265c-0.813,1.127-1.702,2.013-2.668,2.659c-0.965,0.648-2.131,1.135-3.496,1.471
		c-1.367,0.332-2.936,0.498-4.707,0.498H61.7z M65.577,372.516h6.256c1.932,0,3.448-0.18,4.547-0.54
		c1.098-0.36,1.975-0.867,2.627-1.52c0.919-0.919,1.637-2.155,2.149-3.706c0.512-1.554,0.77-3.434,0.77-5.647
		c0-3.066-0.504-5.42-1.509-7.065c-1.007-1.645-2.228-2.747-3.667-3.307c-1.04-0.402-2.713-0.601-5.017-0.601h-6.156V372.516z"/>
	<path style="fill:#FFFFFF;" d="M112.384,375.972v-29.298h3.877v29.298H112.384z"/>
	<path style="fill:#FFFFFF;" d="M157.273,364.479v-3.437l12.41-0.019v10.873c-1.905,1.518-3.87,2.661-5.895,3.426
		c-2.026,0.767-4.104,1.149-6.235,1.149c-2.879,0-5.493-0.615-7.844-1.847c-2.353-1.232-4.128-3.016-5.327-5.348
		c-1.199-2.329-1.799-4.935-1.799-7.813c0-2.853,0.597-5.514,1.789-7.984c1.192-2.473,2.908-4.306,5.146-5.506
		c2.239-1.199,4.817-1.8,7.735-1.8c2.119,0,4.034,0.343,5.747,1.03c1.712,0.687,3.053,1.642,4.027,2.866
		c0.972,1.227,1.712,2.825,2.218,4.797l-3.498,0.961c-0.439-1.493-0.986-2.664-1.638-3.517c-0.654-0.853-1.587-1.537-2.799-2.049
		c-1.213-0.512-2.558-0.77-4.036-0.77c-1.772,0-3.305,0.271-4.597,0.809c-1.293,0.54-2.336,1.249-3.128,2.13
		c-0.792,0.878-1.408,1.844-1.849,2.897c-0.746,1.814-1.119,3.778-1.119,5.896c0,2.612,0.45,4.797,1.349,6.555
		c0.9,1.759,2.209,3.066,3.927,3.919c1.718,0.853,3.545,1.279,5.477,1.279c1.678,0,3.318-0.324,4.916-0.969
		c1.599-0.648,2.811-1.338,3.638-2.069v-5.459H157.273z"/>
	<path style="fill:#FFFFFF;" d="M196.524,375.972v-29.298h3.877v29.298H196.524z"/>
	<path style="fill:#FFFFFF;" d="M235.156,375.972V350.13h-9.653v-3.456h23.223v3.456h-9.693v25.842H235.156z"/>
	<path style="fill:#FFFFFF;" d="M266.913,375.972l11.252-29.298h4.179l11.989,29.298h-4.414l-3.417-8.873h-12.252l-3.218,8.873
		H266.913z M275.368,363.941h9.934l-3.06-8.114c-0.931-2.465-1.626-4.492-2.077-6.076c-0.374,1.878-0.9,3.744-1.579,5.597
		L275.368,363.941z"/>
	<path style="fill:#FFFFFF;" d="M317.735,375.972v-29.298h3.877v25.842h14.431v3.456H317.735z"/>
	<g>
		<path style="fill-rule:evenodd;clip-rule:evenodd;fill:#E8B420;" d="M758.469,283.572c-12.375-2.369-31.294,2.29-42.275,17.544
			c9.895-10.853,21.478-15.436,41.056-14.145C757.66,285.839,758.061,284.701,758.469,283.572z"/>
		<path style="fill-rule:evenodd;clip-rule:evenodd;fill:#E8B420;" d="M664.898,227.721c10.042-11.307,21.803-16.08,41.693-14.741
			l0,0c0.405-1.177,0.816-2.357,1.221-3.541l0,0c-2.036-0.4-4.242-0.606-6.56-0.606l0,0
			C689.241,208.833,674.231,214.399,664.898,227.721L664.898,227.721z"/>
		<path style="fill-rule:evenodd;clip-rule:evenodd;fill:#E8B420;" d="M575.454,190.886c-12.562-2.404-31.774,2.325-42.912,17.814
			c10.034-11.017,21.793-15.668,41.684-14.369C574.63,193.187,575.047,192.039,575.454,190.886z"/>
		<path style="fill-rule:evenodd;clip-rule:evenodd;fill:#E8B420;" d="M618.221,376.644c17.861,3.391,45.182-3.28,61.016-25.159
			c-14.269,15.552-30.997,22.125-59.27,20.287C619.389,373.395,618.803,375.012,618.221,376.644z"/>
	</g>
</g>
<g>
	<rect x="664.523" y="13.92" style="fill:#E6B036;" width="11.09" height="11.09"/>
	<rect x="726.024" y="13.92" style="fill:#E6B036;" width="11.09" height="11.09"/>
	<rect x="756.774" y="13.92" style="fill:#E6B036;" width="11.09" height="11.09"/>
	<rect x="787.524" y="13.92" style="fill:#E6B036;" width="11.09" height="11.09"/>
	<rect x="695.273" y="68.364" style="fill:#E6B036;" width="11.09" height="11.09"/>
	<rect x="756.774" y="68.364" style="fill:#E6B036;" width="11.09" height="11.09"/>
	<rect x="787.525" y="68.364" style="fill:#E6B036;" width="11.09" height="11.09"/>
	<rect x="664.523" y="41.142" style="fill:#E6B036;" width="11.09" height="11.09"/>
	<rect x="695.273" y="41.142" style="fill:#E6B036;" width="11.09" height="11.09"/>
	<rect x="726.024" y="41.142" style="fill:#E6B036;" width="11.09" height="11.09"/>
	<rect x="756.774" y="41.142" style="fill:#E6B036;" width="11.09" height="11.09"/>
	<rect x="633.772" y="95.585" style="fill:#E6B036;" width="11.09" height="11.09"/>
	<rect x="664.523" y="95.585" style="fill:#E6B036;" width="11.09" height="11.09"/>
	<rect x="695.273" y="95.585" style="fill:#E6B036;" width="11.09" height="11.09"/>
	<rect x="726.024" y="95.585" style="fill:#E6B036;" width="11.09" height="11.09"/>
</g>
</svg>
