<?xml version="1.0" encoding="UTF-8"?>
<svg id="Camada_1" data-name="Camada 1" xmlns="http://www.w3.org/2000/svg" viewBox="0 0 1279.63 1043.05">
  <defs>
    <style>
      .cls-1 {
        fill: #fff;
      }

      .cls-2 {
        fill: none;
        stroke: #e6b036;
        stroke-miterlimit: 10;
        stroke-width: 2px;
      }

      .cls-3 {
        fill: #e6b036;
      }
    </style>
  </defs>
  <path class="cls-1" d="m1157.55,0H122.08C54.66,0,0,54.66,0,122.08v704.1c0,54.98,44.57,99.56,99.56,99.56h103.38c8.62,0,15.61,6.97,15.64,15.59.09,28.9.27,59.13.42,82.48.11,16.41,19.33,25.23,31.84,14.61l119.17-101.16c8.76-7.43,19.87-11.52,31.36-11.52h756.19c67.42,0,122.08-54.66,122.08-122.08V122.08c0-67.42-54.66-122.08-122.08-122.08Z"/>
  <path class="cls-2" d="m1253.9,126.34v675.41c0,57.43-46.56,103.99-103.99,103.99H401.36c-16.21,0-31.94,5.78-44.3,16.27l-113.5,96.35c-1.81,1.54-4.6.27-4.61-2.11-.13-20.63-.29-48.34-.38-74.98-.06-19.59-16.05-35.53-35.64-35.53h-103.38c-43.94,0-79.56-35.62-79.56-79.56V126.34c0-57.43,46.56-103.99,103.99-103.99h1025.92c57.43,0,103.99,46.56,103.99,103.99Z"/>
  <g>
    <circle class="cls-3" cx="1114.08" cy="792.59" r="13.63"/>
    <circle class="cls-2" cx="1114.08" cy="792.59" r="31.3"/>
    <line class="cls-2" x1="1279.63" y1="792.59" x2="1145.37" y2="792.59"/>
  </g>
</svg>